<?xml version="1.0" encoding="utf-8"?>
<!-- Generator: Adobe Illustrator 24.2.0, SVG Export Plug-In . SVG Version: 6.00 Build 0)  -->
<svg version="1.1" xmlns="http://www.w3.org/2000/svg" xmlns:xlink="http://www.w3.org/1999/xlink" x="0px" y="0px"
	 viewBox="0 0 501.28 331.47" style="enable-background:new 0 0 501.28 331.47;" xml:space="preserve">
<style type="text/css">
	.st0{display:none;}
	.st1{display:inline;}
	.st2{fill:#254494;}
	.st3{fill:#254593;stroke:#254494;stroke-width:28;stroke-miterlimit:10;}
	.st4{fill:none;stroke:#254494;stroke-width:13;stroke-miterlimit:10;}
	.st5{fill:#E0DE20;stroke:#254494;stroke-width:27;stroke-miterlimit:10;}
	.st6{fill:#E0DE20;}
	.st7{fill:none;stroke:#254494;stroke-miterlimit:10;}
	
		.st8{display:inline;fill:#010202;stroke:#000000;stroke-width:12;stroke-linecap:square;stroke-linejoin:round;stroke-miterlimit:10;}
	.st9{fill:#F2D800;stroke:#254593;stroke-width:2;stroke-miterlimit:10;}
</style>
<g id="Warstwa_1" class="st0">
	<g class="st1">
		<g>
			<path class="st2" d="M100.55,204.72c25.07,2.09,50.27,2.57,75.41,1.41c7.11-0.33,14.21-0.79,21.31-1.38
				c1.35-0.11,2.5-1.07,2.5-2.5c0-1.34-1.14-2.52-2.5-2.5c-17.59,0.2-35.19,0.11-52.78-0.28c-17.59-0.39-35.18-1.07-52.74-2.04
				c-9.94-0.55-19.88-1.2-29.82-1.93c0,1.67,0,3.33,0,5c26.84-1.52,53.71-2.47,80.59-2.83c7.63-0.1,15.27-0.15,22.9-0.16
				c0-1.67,0-3.33,0-5c-20.35,1.46-40.75,2.34-61.16,2.6c-5.81,0.07-11.61,0.1-17.42,0.08c0,1.67,0,3.33,0,5
				c25.58-0.46,51.15-1.27,76.71-2.43c7.3-0.33,14.6-0.7,21.9-1.09c3.19-0.17,3.24-5.02,0-5c-19.24,0.1-38.49,0.19-57.73,0.29
				c-1.35,0.01-2.5,1.14-2.5,2.5c0,1.48,1.15,2.34,2.5,2.5c18.52,2.19,37.1,3.91,55.7,5.32c18.6,1.41,37.23,2.53,55.86,3.54
				c10.55,0.57,21.11,1.11,31.66,1.64c0-1.67,0-3.33,0-5c-24.03,1.63-48.09,2.62-72.17,3.2c-24,0.58-48,0.77-72.01,0.81
				c-13.54,0.02-27.08,0-40.62-0.02c-3.24-0.01-3.19,4.81,0,5c21.08,1.29,42.18,2.25,63.29,3.01c21.03,0.76,42.06,1.32,63.09,1.81
				c11.89,0.28,23.78,0.53,35.67,0.78c3.23,0.07,3.2-4.85,0-5c-23.69-1.12-47.36-2.73-71-4.66c-23.56-1.92-47.1-4.14-70.62-6.48
				c-13.29-1.32-26.57-2.67-39.86-4.03c0,1.67,0,3.33,0,5c31.55,1.19,63.13,1.8,94.7,1.82c8.81,0.01,17.62-0.03,26.42-0.12
				c3.22-0.03,3.22-4.99,0-5c-29.96-0.12-59.91-0.56-89.86-1.33c-8.49-0.22-16.97-0.46-25.45-0.73c0,1.67,0,3.33,0,5
				c19.27,0.23,38.55,0.55,57.82,0.96c19.35,0.41,38.71,0.92,58.06,1.52c10.88,0.34,21.76,0.71,32.63,1.1c0-1.67,0-3.33,0-5
				c-16.85-0.3-33.71-0.61-50.57-0.61c-16.76,0-33.53,0.29-50.27,1.17c-9.48,0.5-18.95,1.2-28.4,2.12c-1.24,0.12-2.3,0.86-2.46,2.17
				c-0.13,1.1,0.55,2.56,1.79,2.74c22.31,3.21,44.76,5.19,67.27,6.37c22.47,1.17,44.97,1.57,67.47,1.68
				c12.65,0.06,25.29,0.04,37.94,0.01c3.24-0.01,3.2-4.82,0-5c-8.23-0.45-16.46-0.91-24.7-1.36c-3.22-0.18-3.21,4.82,0,5
				c8.23,0.45,16.46,0.91,24.7,1.36c0-1.67,0-3.33,0-5c-22.34,0.05-44.68,0.09-67.02-0.36c-22.31-0.45-44.62-1.38-66.86-3.29
				c-12.52-1.08-25.02-2.46-37.47-4.25c-0.22,1.64-0.44,3.27-0.66,4.91c16.76-1.65,33.59-2.55,50.42-2.97
				c16.77-0.42,33.54-0.38,50.31-0.18c9.5,0.12,19,0.29,28.5,0.46c3.22,0.06,3.21-4.88,0-5c-19.26-0.7-38.53-1.31-57.8-1.83
				c-19.35-0.52-38.71-0.95-58.06-1.28c-10.88-0.19-21.77-0.35-32.65-0.47c-3.22-0.04-3.21,4.9,0,5c29.94,0.95,59.9,1.58,89.85,1.89
				c8.49,0.09,16.98,0.14,25.46,0.18c0-1.67,0-3.33,0-5c-31.57,0.3-63.15,0.03-94.72-0.84c-8.8-0.24-17.61-0.53-26.41-0.86
				c-1.35-0.05-2.5,1.19-2.5,2.5c0,1.47,1.15,2.36,2.5,2.5c23.6,2.41,47.2,4.81,70.82,7.02c23.53,2.2,47.09,4.2,70.67,5.82
				c13.32,0.91,26.65,1.7,39.99,2.32c0-1.67,0-3.33,0-5c-21.12-0.45-42.24-0.9-63.35-1.48c-21.03-0.58-42.06-1.28-63.07-2.24
				c-11.88-0.54-23.75-1.16-35.62-1.89c0,1.67,0,3.33,0,5c24.09,0.04,48.18,0.07,72.27-0.14c24-0.22,48-0.69,71.98-1.67
				c13.52-0.55,27.04-1.27,40.55-2.18c3.2-0.22,3.23-4.84,0-5c-18.63-0.95-37.27-1.9-55.89-3.03c-18.62-1.14-37.23-2.47-55.8-4.17
				c-10.52-0.97-21.03-2.06-31.52-3.3c0,1.67,0,3.33,0,5c19.24-0.1,38.49-0.19,57.73-0.29c0-1.67,0-3.33,0-5
				c-25.55,1.37-51.11,2.38-76.69,3.04c-7.31,0.19-14.62,0.35-21.92,0.48c-3.21,0.06-3.23,4.99,0,5
				c20.41,0.08,40.81-0.44,61.19-1.57c5.8-0.32,11.59-0.69,17.38-1.11c3.17-0.23,3.26-5,0-5c-26.88,0.03-53.76,0.64-80.62,1.83
				c-7.63,0.34-15.25,0.73-22.87,1.16c-3.23,0.18-3.2,4.76,0,5c17.55,1.3,35.12,2.31,52.7,3.03c17.58,0.72,35.17,1.14,52.77,1.28
				c9.96,0.07,19.92,0.05,29.88-0.06c0-1.67,0-3.33,0-5c-25.07,2.07-50.28,2.54-75.41,1.36c-7.11-0.33-14.21-0.8-21.3-1.39
				c-1.35-0.11-2.5,1.23-2.5,2.5C98.05,203.67,99.19,204.61,100.55,204.72L100.55,204.72z"/>
		</g>
	</g>
</g>
<g id="Warstwa_3">
	<path class="st3" d="M441.89,217.46H63.24c10.41-5.92,20.81-11.84,31.22-17.76"/>
	<line class="st4" x1="109.02" y1="205.46" x2="441.89" y2="205.46"/>
	<line class="st4" x1="109.02" y1="205.46" x2="359.68" y2="42.34"/>
</g>
<g id="Warstwa_4">
	<line class="st5" x1="359.32" y1="20.02" x2="73.36" y2="211.71"/>
</g>
<g id="Warstwa_5">
	<g>
		<line class="st6" x1="484.47" y1="217.71" x2="341.08" y2="16.19"/>
		<polygon class="st2" points="484.47,217.71 329.67,24.3 352.49,8.07 		"/>
	</g>
	<line class="st7" x1="-463.25" y1="-338.26" x2="-449.66" y2="-338.26"/>
</g>
<g id="Warstwa_6" class="st0">
	<line class="st8" x1="185.21" y1="102.79" x2="185.21" y2="27.62"/>
	<line class="st8" x1="223.48" y1="87.06" x2="223.48" y2="27.62"/>
	<line class="st8" x1="185.21" y1="27.62" x2="223.48" y2="27.62"/>
</g>
<g id="Warstwa_2">
	<g>
		<path class="st9" d="M83.46,259.06H58.11v-12.1h50.91l-23.04,37.08h22.9v13.32H58.83L83.46,259.06z"/>
		<path class="st9" d="M135.51,247.25c9.65,0,18.65,3.1,18.51,14.33c-0.07,5.33-3.89,8.86-7.27,8.86c5.54,0,8.28,4.25,8.28,10.37
			c0,17.79-17.86,16.35-17.86,16.35h-19.87v-49.9H135.51z M132.27,259.35v5.54h1.01c0.65,0,1.37,0.07,2.02,0.07
			c1.66-0.07,4.97-0.58,4.97-3.17c0-2.59-3.67-2.45-4.75-2.45H132.27z M132.27,279.87v5.9h5.62c0,0,3.17,0,3.17-2.74
			c0-2.52-3.02-3.02-7.13-3.17h-0.43h-0.29H132.27z"/>
		<path class="st9" d="M208.45,271.09c0,14.4-8.86,26.07-23.26,26.07c-14.4,0-22.47-11.67-22.47-26.07v-24.12h15.91v24.27
			c0,10.08,2.45,12.96,6.48,12.96c4.25,0,7.42-2.88,7.27-12.96l0.14-24.27h15.99L208.45,271.09z"/>
		<path class="st9" d="M223.71,246.96l21.46,0.07c13.9,0,25.13,11.31,25.13,25.27c0,13.9-11.23,25.06-25.13,25.06h-21.46V246.96z
			 M238.25,261.44v21.67h6.19c5.98,0,10.8-4.82,10.8-10.8s-4.82-10.87-10.8-10.87H238.25z"/>
		<path class="st9" d="M323.5,271.09c0,14.4-8.86,26.07-23.26,26.07c-14.4,0-22.47-11.67-22.47-26.07v-24.12h15.91v24.27
			c0,10.08,2.45,12.96,6.48,12.96c4.25,0,7.42-2.88,7.27-12.96l0.14-24.27h15.99L323.5,271.09z"/>
		<path class="st9" d="M353.81,297.58c0,13.9-10.08,25.13-27.22,25.13v-15.05c9.22,0,10.8-4.82,10.8-10.8v-49.9h16.34L353.81,297.58
			z"/>
		<path class="st2" d="M382.69,227.9H365v-28.2h60.25v28.34h-17.69v70.35h-24.87V227.9z"/>
		<path class="st9" d="M460.36,246.96c14.62,0,26.43,11.23,26.43,25.06c0,13.9-11.81,25.13-26.43,25.13
			c-14.47,0-26.28-11.23-26.28-25.13C434.08,258.2,445.89,246.96,460.36,246.96z M460.58,283.11c6.12,0,10.37-4.97,10.37-11.09
			s-4.25-11.09-10.37-11.09s-11.09,4.97-11.09,11.09S454.46,283.11,460.58,283.11z"/>
	</g>
</g>
</svg>
