<?xml version="1.0" encoding="utf-8"?>
<!-- Generator: Adobe Illustrator 24.2.0, SVG Export Plug-In . SVG Version: 6.00 Build 0)  -->
<svg version="1.1" xmlns="http://www.w3.org/2000/svg" xmlns:xlink="http://www.w3.org/1999/xlink" x="0px" y="0px"
	 viewBox="0 0 501.28 331.47" style="enable-background:new 0 0 501.28 331.47;" xml:space="preserve">
<style type="text/css">
	.st0{fill:#FFFFFF;stroke:#254494;stroke-width:29;stroke-miterlimit:10;}
	.st1{fill:#E0DE20;stroke:#254494;stroke-width:27;stroke-miterlimit:10;}
	.st2{fill:#E0DE20;}
	.st3{fill:#254494;}
	.st4{fill:none;stroke:#254494;stroke-miterlimit:10;}
	.st5{display:none;}
	
		.st6{display:inline;fill:#010202;stroke:#000000;stroke-width:12;stroke-linecap:square;stroke-linejoin:round;stroke-miterlimit:10;}
	.st7{fill:#F2D800;stroke:#254593;stroke-width:2;stroke-miterlimit:10;}
</style>
<g id="Warstwa_1">
</g>
<g id="Warstwa_3">
	<path class="st0" d="M441.89,217.71H61.13c10.46-6,20.93-12.01,31.39-18.01"/>
</g>
<g id="Warstwa_4">
	<line class="st1" x1="359.32" y1="20.02" x2="61.1" y2="218.89"/>
</g>
<g id="Warstwa_5">
	<g>
		<line class="st2" x1="484.47" y1="217.71" x2="341.08" y2="16.19"/>
		<polygon class="st3" points="484.47,217.71 329.67,24.3 352.49,8.07 		"/>
	</g>
	<line class="st4" x1="-463.25" y1="-338.26" x2="-449.66" y2="-338.26"/>
</g>
<g id="Warstwa_6" class="st5">
	<line class="st6" x1="185.21" y1="102.79" x2="185.21" y2="27.62"/>
	<line class="st6" x1="223.48" y1="87.06" x2="223.48" y2="27.62"/>
	<line class="st6" x1="185.21" y1="27.62" x2="223.48" y2="27.62"/>
</g>
<g id="Warstwa_2">
	<g>
		<path class="st7" d="M83.46,259.06H58.11v-12.1h50.91l-23.04,37.08h22.9v13.32H58.83L83.46,259.06z"/>
		<path class="st7" d="M135.51,247.25c9.65,0,18.65,3.1,18.51,14.33c-0.07,5.33-3.89,8.86-7.27,8.86c5.54,0,8.28,4.25,8.28,10.37
			c0,17.79-17.86,16.35-17.86,16.35h-19.87v-49.9H135.51z M132.27,259.35v5.54h1.01c0.65,0,1.37,0.07,2.02,0.07
			c1.66-0.07,4.97-0.58,4.97-3.17c0-2.59-3.67-2.45-4.75-2.45H132.27z M132.27,279.87v5.9h5.62c0,0,3.17,0,3.17-2.74
			c0-2.52-3.02-3.02-7.13-3.17h-0.43h-0.29H132.27z"/>
		<path class="st7" d="M208.45,271.09c0,14.4-8.86,26.07-23.26,26.07c-14.4,0-22.47-11.67-22.47-26.07v-24.12h15.91v24.27
			c0,10.08,2.45,12.96,6.48,12.96c4.25,0,7.42-2.88,7.27-12.96l0.14-24.27h15.99L208.45,271.09z"/>
		<path class="st7" d="M223.71,246.96l21.46,0.07c13.9,0,25.13,11.31,25.13,25.27c0,13.9-11.23,25.06-25.13,25.06h-21.46V246.96z
			 M238.25,261.44v21.67h6.19c5.98,0,10.8-4.82,10.8-10.8s-4.82-10.87-10.8-10.87H238.25z"/>
		<path class="st7" d="M323.5,271.09c0,14.4-8.86,26.07-23.26,26.07c-14.4,0-22.47-11.67-22.47-26.07v-24.12h15.91v24.27
			c0,10.08,2.45,12.96,6.48,12.96c4.25,0,7.42-2.88,7.27-12.96l0.14-24.27h15.99L323.5,271.09z"/>
		<path class="st7" d="M353.81,297.58c0,13.9-10.08,25.13-27.22,25.13v-15.05c9.22,0,10.8-4.82,10.8-10.8v-49.9h16.34L353.81,297.58
			z"/>
		<path class="st3" d="M382.69,232.01H365v-26.55h60.25v26.68h-17.69v66.24h-24.87V232.01z"/>
		<path class="st7" d="M460.36,246.96c14.62,0,26.43,11.23,26.43,25.06c0,13.9-11.81,25.13-26.43,25.13
			c-14.47,0-26.28-11.23-26.28-25.13C434.08,258.2,445.89,246.96,460.36,246.96z M460.58,283.11c6.12,0,10.37-4.97,10.37-11.09
			s-4.25-11.09-10.37-11.09s-11.09,4.97-11.09,11.09S454.46,283.11,460.58,283.11z"/>
	</g>
</g>
</svg>
